<?xml version="1.0" encoding="utf-8"?>
<!-- Generator: Adobe Illustrator 16.0.0, SVG Export Plug-In . SVG Version: 6.00 Build 0)  -->
<!DOCTYPE svg PUBLIC "-//W3C//DTD SVG 1.1//EN" "http://www.w3.org/Graphics/SVG/1.1/DTD/svg11.dtd">
<svg version="1.1" id="Layer_1" xmlns="http://www.w3.org/2000/svg" xmlns:xlink="http://www.w3.org/1999/xlink" x="0px" y="0px"
	 width="52px" height="52px" viewBox="0 0 52 52" enable-background="new 0 0 52 52" xml:space="preserve">
<path fill="none" stroke="#676767" stroke-width="0.5" stroke-miterlimit="10" d="M51.247,45.747c0,3.085-2.508,5.657-5.593,5.657
	H6.048c-3.086,0-5.594-2.572-5.594-5.657V6.222c0-3.119,2.508-5.626,5.594-5.626H45.59c3.214,0,5.657,2.507,5.657,5.626V45.747
	L51.247,45.747z"/>
<g>
	<path fill="#676767" d="M15.179,19.482c-2.958-0.514-5.883,1.222-6.88,4.051c-0.192,0.466-0.289,0.996-0.417,1.479
		c0,0.434,0,0.835,0,1.253c0.064,0.307,0.128,0.563,0.225,0.837c1.157,3.97,2.958,7.634,5.111,11.186
		c0.482,0.788,1.479,0.725,1.961-0.063c1.961-3.2,3.568-6.559,4.789-10.111c0.258-0.787,0.482-1.671,0.482-2.507
		C20.45,22.584,18.2,19.98,15.179,19.482z M14.149,30.252c-2.507,0-4.564-2.074-4.5-4.613c0-2.491,2.025-4.533,4.564-4.533
		c2.507,0,4.564,2.074,4.564,4.613C18.747,28.209,16.657,30.252,14.149,30.252z"/>
	<path fill="#676767" d="M16.721,37.951c-0.193,0.305-0.417,0.658-0.611,0.964c-0.932,1.415-2.893,1.415-3.857,0
		c-0.193-0.339-0.386-0.628-0.546-0.932c-0.129-0.226-0.257-0.289-0.45-0.193c-0.643,0.193-1.286,0.37-1.865,0.595
		c-0.643,0.289-1.158,0.69-1.511,1.317c0,0.129,0,0.258,0,0.387c0.417,0.803,1.158,1.157,1.961,1.479
		c2.218,0.804,4.565,0.868,6.879,0.449c1.094-0.191,2.154-0.514,3.086-1.093c0.9-0.691,0.9-1.317,0-2.009
		c-0.804-0.659-1.8-0.884-2.765-1.093C16.915,37.758,16.721,37.854,16.721,37.951z"/>
	<path fill="#676767" d="M40.317,34.014c-0.32,0.096-0.387,0.385-0.449,0.722c0,0.289-0.064,0.564-0.129,0.82
		c0,0.322,0.064,0.626,0.449,0.692c0.354,0.063,0.579-0.129,0.644-0.467c0.064-0.29,0.129-0.563,0.193-0.788
		c0-0.225,0-0.401,0-0.595C40.864,34.143,40.671,33.916,40.317,34.014z"/>
	<path fill="#676767" d="M36.428,22.488c1.382-2.266,2.539-4.645,3.312-7.217c0.707-2.524-1.222-4.999-3.859-4.999
		c-2.635,0-4.531,2.475-3.792,4.999c0.707,2.572,1.929,4.918,3.279,7.217C35.688,22.906,36.138,22.954,36.428,22.488z
		 M33.053,14.258c0-1.591,1.285-2.829,2.827-2.829c1.545,0,2.831,1.237,2.894,2.829c0,1.575-1.349,2.861-2.894,2.861
		C34.338,17.12,33.053,15.802,33.053,14.258z"/>
	<path fill="#676767" d="M38.518,25.092c0.707-0.305,1.351-0.755,1.413-1.688c0-0.852-0.675-1.318-1.349-1.704
		c-0.129-0.032-0.193-0.064-0.321-0.097c-0.258,0.45-0.516,0.916-0.771,1.35c-0.804,1.351-2.348,1.351-3.151,0
		c-0.289-0.434-0.515-0.9-0.835-1.382c-0.193,0.129-0.387,0.225-0.579,0.354c-1.351,0.852-1.351,2.105,0,2.926
		C34.723,25.944,36.621,25.944,38.518,25.092z"/>
	<path fill="#676767" d="M23.729,26.796c-0.45,0-0.739,0.466-0.515,0.786c0.322,0.402,0.644,0.725,1.061,1.03
		c0.322,0.257,0.804-0.064,0.804-0.499C25.079,27.857,24.051,26.796,23.729,26.796z"/>
	<path fill="#676767" d="M38.582,29.803c0-0.209-0.064-0.531-0.193-0.676c-0.321-0.258-0.675-0.45-1.028-0.611
		c-0.322-0.146-0.644-0.032-0.804,0.257c-0.161,0.29-0.032,0.595,0.258,0.755c0.289,0.162,0.61,0.369,0.931,0.531
		c0.098,0.064,0.227,0.096,0.387,0.16C38.261,30.092,38.518,29.963,38.582,29.803z"/>
	<path fill="#676767" d="M39.16,31.57c0.129,0.289,0.258,0.658,0.45,0.883c0.129,0.209,0.32,0.337,0.449,0.403
		c0.482,0,0.739-0.403,0.611-0.757c-0.129-0.369-0.354-0.689-0.547-1.06c-0.127-0.322-0.449-0.387-0.739-0.258
		C39.096,30.878,38.967,31.217,39.16,31.57z"/>
	<path fill="#676767" d="M35.271,39.413c-0.29,0.064-0.481,0.289-0.419,0.61c0,0.338,0.258,0.498,0.677,0.498
		c0.352-0.063,0.738-0.16,1.157-0.289c0.353-0.096,0.481-0.369,0.353-0.69c-0.097-0.338-0.321-0.467-0.643-0.401
		C36.009,39.204,35.624,39.302,35.271,39.413z"/>
	<path fill="#676767" d="M25.658,39.444c-0.225,0-0.45-0.031-0.707,0c-0.321,0.033-0.515,0.258-0.45,0.548
		c0.032,0.209,0.258,0.467,0.45,0.498c0.45,0.064,0.9,0.064,1.35,0c0.322,0,0.483-0.258,0.483-0.562
		c0-0.289-0.161-0.484-0.483-0.516C26.108,39.413,25.852,39.444,25.658,39.444z"/>
	<path fill="#676767" d="M23.986,25.381c0.161-0.289,0.354-0.594,0.515-0.852c0.032-0.129,0.097-0.224,0.193-0.434
		c-0.161-0.129-0.258-0.354-0.419-0.386c-0.16-0.032-0.481-0.032-0.61,0.097c-0.257,0.354-0.547,0.755-0.739,1.172
		c-0.129,0.307,0,0.564,0.289,0.708C23.537,25.783,23.794,25.686,23.986,25.381z"/>
	<path fill="#676767" d="M29.065,39.444c-0.192,0-0.481-0.08-0.675,0c-0.16,0.098-0.354,0.322-0.418,0.516
		c-0.064,0.272,0.064,0.499,0.418,0.53c0.482,0.064,0.933,0.064,1.383,0c0.289,0,0.449-0.258,0.449-0.562
		c0-0.289-0.191-0.484-0.514-0.516C29.516,39.413,29.323,39.444,29.065,39.444z"/>
	<path fill="#676767" d="M32.537,39.444C32.537,39.413,32.537,39.413,32.537,39.444c-0.225-0.031-0.514-0.111-0.707,0.033
		c-0.192,0.064-0.417,0.322-0.417,0.482c0,0.209,0.225,0.53,0.354,0.562c0.481,0.066,0.964,0.066,1.414,0
		c0.193-0.031,0.385-0.32,0.451-0.529c0.063-0.29-0.129-0.515-0.451-0.548C32.987,39.413,32.764,39.444,32.537,39.444z"/>
	<path fill="#676767" d="M38.902,37.356c-0.256,0.24-0.514,0.498-0.771,0.804c-0.227,0.256-0.258,0.545,0,0.787
		c0.257,0.257,0.579,0.226,0.771,0c0.322-0.273,0.579-0.563,0.837-0.82c0.064-0.096,0.129-0.272,0.191-0.466
		c-0.127-0.096-0.256-0.336-0.385-0.402C39.353,37.196,39.096,37.259,38.902,37.356z"/>
	<path fill="#676767" d="M26.688,23.966c0.225,0,0.449,0,0.706-0.032c0.258-0.031,0.451-0.257,0.451-0.562
		c0-0.321-0.129-0.531-0.451-0.563c-0.449-0.032-0.899-0.032-1.35,0c-0.289,0.064-0.449,0.306-0.449,0.595
		c0,0.273,0.128,0.499,0.449,0.562C26.236,23.966,26.43,23.966,26.688,23.966z"/>
	<path fill="#676767" d="M26.72,28.018c-0.354,0.031-0.483,0.191-0.483,0.498c0,0.29,0.129,0.547,0.387,0.579
		c0.481,0.032,0.964,0.032,1.414-0.032c0.16-0.033,0.354-0.322,0.418-0.515c0.031-0.306-0.129-0.499-0.418-0.563
		c-0.258-0.031-0.45,0-0.644,0C27.137,27.984,26.912,27.984,26.72,28.018z"/>
	<path fill="#676767" d="M33.565,28.018c-0.32,0.063-0.513,0.256-0.449,0.53c0.064,0.225,0.258,0.481,0.449,0.515
		c0.451,0.064,0.901,0.064,1.384,0c0.16-0.033,0.386-0.322,0.418-0.515c0.032-0.274-0.129-0.468-0.418-0.53
		c-0.227-0.033-0.482,0-0.676,0C34.017,28.018,33.792,27.984,33.565,28.018z"/>
	<path fill="#676767" d="M31.38,28.018c-0.385-0.033-0.835-0.033-1.22,0c-0.355,0.031-0.516,0.225-0.516,0.562
		c0,0.322,0.16,0.516,0.516,0.548c0.191,0.048,0.385,0,0.642,0c0.226,0,0.418,0.048,0.611,0c0.354-0.032,0.546-0.226,0.482-0.548
		C31.896,28.242,31.702,28.049,31.38,28.018z"/>
	<path fill="#676767" d="M22.508,39.413L22.508,39.413c-0.128,0-0.192,0-0.321,0c-0.321,0.031-0.547,0.193-0.547,0.547
		c0,0.37,0.193,0.562,0.547,0.595c0.258,0.033,0.547,0.064,0.739-0.033c0.16-0.096,0.354-0.353,0.354-0.562
		c0-0.16-0.226-0.354-0.386-0.516C22.797,39.364,22.637,39.413,22.508,39.413z"/>
	<path fill="#676767" d="M30.287,23.934c0.193-0.096,0.386-0.337,0.451-0.53c0.063-0.257-0.129-0.499-0.451-0.563
		c-0.127-0.032-0.256-0.032-0.385-0.032c-0.064,0-0.161,0-0.258,0c-0.386,0.032-0.579,0.242-0.579,0.595
		c0,0.337,0.193,0.562,0.547,0.562C29.805,23.966,30.094,23.999,30.287,23.934z"/>
	<path fill="#676767" d="M14.214,22.247c1.865,0,3.408,1.542,3.408,3.439c0,1.882-1.543,3.409-3.408,3.409
		c-1.896,0-3.439-1.526-3.439-3.409C10.774,23.79,12.317,22.247,14.214,22.247z"/>
	<path fill="#676767" d="M35.88,12.538c0.966,0,1.736,0.772,1.736,1.72s-0.771,1.704-1.736,1.704c-0.931,0-1.702-0.755-1.702-1.704
		S34.949,12.538,35.88,12.538z"/>
</g>
</svg>
